HIERARCHY
ROOT pelvis
{
  OFFSET 0 100 0
  CHANNELS 6 Xposition Yposition Zposition Zrotation Xrotation Yrotation
  JOINT pelvis_right_femur
  {
    OFFSET -10.78128 -3.44521 -0.5502486
    CHANNELS 3 Zrotation Xrotation Yrotation
    JOINT right_femur_tibia
    {
      OFFSET -0.8047443 -44.0398 -0.1307829
      CHANNELS 3 Zrotation Xrotation Yrotation
      JOINT right_tibia_foot
      {
        OFFSET 3.006224 -47.83518 -5
        CHANNELS 3 Zrotation Xrotation Yrotation
        End Site
        {
          OFFSET 0 -5 15
        }
      }
    }
  }
  JOINT pelvis_left_femur
  {
    OFFSET 10.78128 -3.44521 -0.5502486
    CHANNELS 3 Zrotation Xrotation Yrotation
    JOINT left_femur_tibia
    {
      OFFSET 0.8047443 -44.0398 -0.1307829
      CHANNELS 3 Zrotation Xrotation Yrotation
      JOINT left_tibia_foot
      {
        OFFSET -4.370144 -48.10324 -4.275266
        CHANNELS 3 Zrotation Xrotation Yrotation
        End Site
        {
          OFFSET 0 -5 15
        }
      }
    }
  }
  JOINT pelvis_spine1
  {
    OFFSET 0 6.468898 -3.129235
    CHANNELS 3 Zrotation Xrotation Yrotation
    JOINT spine1
    {
      OFFSET 0 23.15396 4.99043
      CHANNELS 3 Zrotation Xrotation Yrotation
      JOINT spine2
      {
        OFFSET 0 20.79997 -5.064912
        CHANNELS 3 Zrotation Xrotation Yrotation
        JOINT neck
        {
          OFFSET 0 14.38658 9.616178
          CHANNELS 3 Zrotation Xrotation Yrotation
          End Site
          {
            OFFSET 0 20 0
          }
        }
      }
      JOINT right_manubrium
      {
        OFFSET -5.722621 16.35077 3.967754
        CHANNELS 3 Zrotation Xrotation Yrotation
        JOINT right_clavicle
        {
          OFFSET -13.16364 1.694482 -4.693211
          CHANNELS 3 Zrotation Xrotation Yrotation
          JOINT right_humerus
          {
            OFFSET -28.5034 -0.3100689 -2.792744
            CHANNELS 3 Zrotation Xrotation Yrotation
            JOINT right_radius
            {
              OFFSET -25.15693 0.02248979 -1.271978
              CHANNELS 3 Zrotation Xrotation Yrotation
              End Site
              {
                OFFSET -15 0 0
              }
            }
          }
        }
      }
      JOINT left_manubrium
      {
        OFFSET 5.722621 16.35077 3.967754
        CHANNELS 3 Zrotation Xrotation Yrotation
        JOINT left_clavicle
        {
          OFFSET 13.16364 1.694482 -4.693211
          CHANNELS 3 Zrotation Xrotation Yrotation
          JOINT left_humerus
          {
            OFFSET 29.39168 -1.063119 -2.237045
            CHANNELS 3 Zrotation Xrotation Yrotation
            JOINT left_radius
            {
              OFFSET 24.59957 -0.9528479 0.9047498
              CHANNELS 3 Zrotation Xrotation Yrotation
              End Site
              {
                OFFSET 15 -0 -0
              }
            }
          }
        }
      }
    }
  }
}
MOTION
Frames: 17
Frame Time: 0.0416666666667
-780.9297 153.246 -84.15696 7.350167 0.5194138 96.67204 4.032138 14.37831 -0.9306198 -0 14.61583 -0 -12.18925 -14.08548 0.4431505 3.433116 -19.41757 -3.178992 -0 9.936745 -0 2.127943 0.1878981 15.81762 -0.2376434 -3.008258 7.824607 0.5601244 14.3473 -4.732591 -0.4660608 20.19848 5.547742 4.663393 -15.77223 3.332877 3.071505 -27.54687 13.23072 82.52134 23.44394 -7.886387 -0 0 27.31891 -21.89022 14.82449 11.90979 4.233962 -24.08857 -8.310105 -97.37815 7.936639 35.88421 0 0 -0.1028547 11.11328 13.04054 -1.310562
-775.5756 153.1464 -86.14463 7.355202 0.4419811 96.07194 4.032138 14.37831 -0.93062 -0 14.61583 -0 -12.18925 -14.08548 0.4431509 3.433116 -19.41757 -3.178992 -0 9.936747 -0 2.127943 0.1878981 15.81762 -0.2376438 -3.008258 7.824607 0.5601244 14.3473 -4.732591 -0.466061 20.19848 5.547742 4.663394 -15.77223 3.332877 3.071506 -27.54687 13.23072 82.52134 23.44395 -7.886387 -0 0 27.31891 -21.89022 14.82449 11.90979 4.233963 -24.08857 -8.310105 -97.37815 7.936638 35.88421 0 0 -0.1028537 11.11328 13.04053 -1.310564
-770.2008 153.0467 -88.07565 7.359425 0.3644999 95.47186 4.032138 14.37831 -0.9306203 -0 14.61583 -0 -12.18925 -14.08548 0.4431512 3.433116 -19.41757 -3.178992 -0 9.936749 -0 2.127943 0.187898 15.81762 -0.2376441 -3.008257 7.824607 0.5601244 14.3473 -4.732591 -0.4660612 20.19848 5.547743 4.663395 -15.77223 3.332877 3.071507 -27.54687 13.23072 82.52134 23.44395 -7.886388 -0 0 27.31891 -21.89022 14.82449 11.90979 4.233963 -24.08857 -8.310105 -97.37815 7.936638 35.88421 0 0 -0.1028529 11.11328 13.04053 -1.310566
-764.8059 152.947 -89.94981 7.362836 0.2869787 94.87179 4.032137 14.37831 -0.9306205 -0 14.61583 -0 -12.18925 -14.08548 0.4431516 3.433115 -19.41757 -3.178992 -0 9.93675 -0 2.127942 0.187898 15.81762 -0.2376443 -3.008257 7.824607 0.5601244 14.3473 -4.73259 -0.4660614 20.19848 5.547743 4.663395 -15.77223 3.332876 3.071507 -27.54687 13.23072 82.52134 23.44395 -7.886388 -0 0 27.31891 -21.89022 14.82448 11.90978 4.233963 -24.08857 -8.310105 -97.37815 7.936637 35.88421 0 0 -0.1028521 11.11328 13.04053 -1.310567
-759.3916 152.8474 -91.76689 7.365436 0.209426 94.27172 4.032137 14.37831 -0.9306207 -0 14.61583 -0 -12.18925 -14.08548 0.4431518 3.433115 -19.41757 -3.178992 -0 9.936752 -0 2.127942 0.1878981 15.81762 -0.2376446 -3.008257 7.824607 0.5601244 14.3473 -4.73259 -0.4660616 20.19848 5.547744 4.663396 -15.77223 3.332876 3.071507 -27.54687 13.23072 82.52134 23.44395 -7.886388 -0 0 27.31891 -21.89022 14.82448 11.90978 4.233964 -24.08857 -8.310105 -97.37815 7.936637 35.88421 0 0 -0.1028514 11.11328 13.04053 -1.310568
-753.9583 152.7477 -93.5267 7.367223 0.1318503 93.67166 4.032137 14.37831 -0.9306209 -0 14.61583 -0 -12.18925 -14.08548 0.4431521 3.433115 -19.41757 -3.178992 -0 9.936753 -0 2.127942 0.1878981 15.81762 -0.2376448 -3.008257 7.824607 0.5601245 14.3473 -4.73259 -0.4660618 20.19848 5.547744 4.663396 -15.77223 3.332876 3.071508 -27.54687 13.23072 82.52134 23.44395 -7.886388 -0 0 27.31891 -21.89022 14.82448 11.90978 4.233964 -24.08857 -8.310106 -97.37815 7.936637 35.88421 0 0 -0.1028507 11.11328 13.04053 -1.310569
-748.5068 152.648 -95.22904 7.368197 0.0542602 93.07161 4.032137 14.37831 -0.9306211 -0 14.61583 -0 -12.18925 -14.08548 0.4431523 3.433115 -19.41757 -3.178992 -0 9.936755 -0 2.127942 0.1878981 15.81762 -0.237645 -3.008256 7.824608 0.5601245 14.3473 -4.73259 -0.466062 20.19848 5.547744 4.663397 -15.77223 3.332876 3.071508 -27.54687 13.23072 82.52134 23.44395 -7.886388 -0 0 27.31891 -21.89022 14.82448 11.90978 4.233964 -24.08857 -8.310106 -97.37815 7.936636 35.88421 0 0 -0.1028502 11.11328 13.04053 -1.31057
-743.0376 152.5484 -96.87371 7.368359 -0.02333591 92.47156 4.032137 14.37831 -0.9306212 -0 14.61583 -0 -12.18925 -14.08548 0.4431525 3.433114 -19.41757 -3.178992 -0 9.936756 -0 2.127942 0.1878981 15.81762 -0.2376452 -3.008256 7.824608 0.5601245 14.3473 -4.73259 -0.4660621 20.19848 5.547745 4.663397 -15.77223 3.332876 3.071509 -27.54687 13.23072 82.52134 23.44395 -7.886388 -0 0 27.31891 -21.89022 14.82448 11.90978 4.233964 -24.08857 -8.310106 -97.37815 7.936636 35.88421 0 0 -0.1028497 11.11328 13.04053 -1.310571
-737.5513 152.4487 -98.46053 7.367708 -0.1009295 91.8715 4.032136 14.37831 -0.9306213 -0 14.61583 -0 -12.18925 -14.08548 0.4431527 3.433114 -19.41757 -3.178992 -0 9.936757 -0 2.127942 0.1878981 15.81762 -0.2376454 -3.008256 7.824608 0.5601245 14.3473 -4.73259 -0.4660623 20.19848 5.547745 4.663397 -15.77223 3.332876 3.071509 -27.54687 13.23072 82.52134 23.44395 -7.886389 -0 0 27.31891 -21.89022 14.82448 11.90978 4.233964 -24.08857 -8.310106 -97.37815 7.936636 35.88421 0 0 -0.1028492 11.11328 13.04053 -1.310572
-732.0486 152.349 -99.98934 7.366245 -0.178512 91.27144 4.032136 14.37831 -0.9306214 -0 14.61583 -0 -12.18925 -14.08548 0.4431529 3.433114 -19.41757 -3.178992 -0 9.936758 -0 2.127942 0.1878981 15.81762 -0.2376456 -3.008256 7.824608 0.5601246 14.3473 -4.73259 -0.4660624 20.19848 5.547745 4.663398 -15.77223 3.332876 3.071509 -27.54687 13.23072 82.52134 23.44395 -7.886389 -0 0 27.31891 -21.89022 14.82448 11.90978 4.233965 -24.08857 -8.310106 -97.37815 7.936635 35.88421 0 0 -0.1028489 11.11328 13.04053 -1.310573
-726.53 152.2494 -101.4599 7.363969 -0.2560749 90.67138 4.032136 14.37831 -0.9306215 -0 14.61583 -0 -12.18925 -14.08548 0.443153 3.433114 -19.41757 -3.178992 -0 9.936759 -0 2.127942 0.1878981 15.81762 -0.2376457 -3.008256 7.824608 0.5601246 14.3473 -4.73259 -0.4660625 20.19848 5.547745 4.663398 -15.77223 3.332875 3.071509 -27.54687 13.23072 82.52133 23.44395 -7.886389 -0 0 27.31891 -21.89022 14.82448 11.90978 4.233965 -24.08857 -8.310106 -97.37815 7.936635 35.88421 0 0 -0.1028486 11.11328 13.04053 -1.310573
-720.9962 152.1497 -102.8722 7.360881 -0.3336098 90.07131 4.032136 14.37831 -0.9306215 -0 14.61583 -0 -12.18925 -14.08548 0.4431531 3.433114 -19.41757 -3.178992 -0 9.93676 -0 2.127942 0.1878981 15.81762 -0.2376458 -3.008256 7.824608 0.5601246 14.3473 -4.73259 -0.4660626 20.19848 5.547745 4.663398 -15.77223 3.332875 3.07151 -27.54687 13.23072 82.52133 23.44395 -7.886389 -0 0 27.31891 -21.89022 14.82448 11.90978 4.233965 -24.08857 -8.310106 -97.37815 7.936635 35.88421 0 0 -0.1028483 11.11328 13.04053 -1.310574
-715.4478 152.05 -104.2259 7.356981 -0.4111081 89.47123 4.032136 14.37831 -0.9306216 -0 14.61583 -0 -12.18925 -14.08548 0.4431532 3.433114 -19.41757 -3.178992 -0 9.936761 -0 2.127942 0.1878981 15.81762 -0.2376459 -3.008256 7.824608 0.5601247 14.3473 -4.73259 -0.4660627 20.19848 5.547745 4.663399 -15.77223 3.332875 3.07151 -27.54687 13.23072 82.52133 23.44395 -7.886389 -0 0 27.31891 -21.89022 14.82448 11.90978 4.233965 -24.08857 -8.310106 -97.37815 7.936635 35.88421 0 0 -0.1028481 11.11328 13.04053 -1.310574
-709.8855 151.9504 -105.521 7.35227 -0.4885613 88.87114 4.032136 14.37831 -0.9306216 -0 14.61583 -0 -12.18925 -14.08548 0.4431533 3.433114 -19.41757 -3.178992 -0 9.936761 -0 2.127942 0.1878982 15.81762 -0.237646 -3.008256 7.824608 0.5601247 14.3473 -4.73259 -0.4660628 20.19848 5.547746 4.663399 -15.77223 3.332875 3.07151 -27.54687 13.23072 82.52133 23.44395 -7.88639 -0 0 27.31891 -21.89022 14.82448 11.90978 4.233965 -24.08857 -8.310107 -97.37815 7.936634 35.88421 0 0 -0.102848 11.11328 13.04053 -1.310575
-704.3097 151.8507 -106.7573 7.346748 -0.5659609 88.27104 4.032136 14.37831 -0.9306216 -0 14.61583 -0 -12.18925 -14.08548 0.4431533 3.433114 -19.41757 -3.178992 -0 9.936762 -0 2.127942 0.1878982 15.81762 -0.2376461 -3.008256 7.824608 0.5601247 14.3473 -4.73259 -0.4660628 20.19848 5.547746 4.663399 -15.77223 3.332875 3.07151 -27.54687 13.23072 82.52133 23.44395 -7.88639 -0 0 27.31891 -21.89022 14.82448 11.90978 4.233965 -24.08857 -8.310107 -97.37815 7.936634 35.8842 0 0 -0.1028479 11.11328 13.04053 -1.310575
-698.7213 151.751 -107.9346 7.340415 -0.6432984 87.67092 4.032136 14.37831 -0.9306216 -0 14.61583 -0 -12.18925 -14.08548 0.4431533 3.433114 -19.41757 -3.178992 -0 9.936763 -0 2.127942 0.1878982 15.81762 -0.2376462 -3.008255 7.824608 0.5601247 14.3473 -4.73259 -0.4660629 20.19848 5.547746 4.663399 -15.77223 3.332875 3.07151 -27.54687 13.23072 82.52133 23.44395 -7.88639 -0 0 27.31891 -21.89022 14.82448 11.90978 4.233965 -24.08857 -8.310107 -97.37815 7.936634 35.8842 0 0 -0.1028478 11.11329 13.04053 -1.310575
-693.1207 151.6513 -109.0528 7.333272 -0.7205654 87.07078 4.032136 14.37831 -0.9306215 -0 14.61583 -0 -12.18925 -14.08548 0.4431534 3.433114 -19.41757 -3.178992 -0 9.936763 -0 2.127942 0.1878982 15.81762 -0.2376462 -3.008255 7.824608 0.5601248 14.3473 -4.73259 -0.466063 20.19848 5.547746 4.663399 -15.77223 3.332875 3.07151 -27.54687 13.23072 82.52133 23.44395 -7.88639 -0 0 27.31891 -21.89022 14.82448 11.90978 4.233965 -24.08857 -8.310107 -97.37815 7.936634 35.8842 0 0 -0.1028478 11.11329 13.04053 -1.310575
